<?xml version="1.0" standalone="no"?><svg xmlns="http://www.w3.org/2000/svg" viewBox="0 0 1440 320"><path fill="#0099ff" fill-opacity="1" d="M0,160L34.3,154.7C68.6,149,137,139,206,160C274.3,181,343,235,411,256C480,277,549,267,617,261.3C685.7,256,754,256,823,229.3C891.4,203,960,149,1029,144C1097.1,139,1166,181,1234,197.3C1302.9,213,1371,203,1406,197.3L1440,192L1440,320L1405.7,320C1371.4,320,1303,320,1234,320C1165.7,320,1097,320,1029,320C960,320,891,320,823,320C754.3,320,686,320,617,320C548.6,320,480,320,411,320C342.9,320,274,320,206,320C137.1,320,69,320,34,320L0,320Z"></path></svg>